Coordinates
version=1
nRows=34
nColumns=38
inDegrees=no

Units are S.I. units (second, meters, Newtons, ...)
If the header above contains a line with 'inDegrees', this indicates whether rotational values are in degrees (yes) or radians (no).

endheader
time	pelvis_tilt	pelvis_list	pelvis_rotation	pelvis_tx	pelvis_ty	pelvis_tz	hip_flexion_r	hip_adduction_r	hip_rotation_r	knee_angle_r	ankle_angle_r	subtalar_angle_r	mtp_angle_r	hip_flexion_l	hip_adduction_l	hip_rotation_l	knee_angle_l	ankle_angle_l	subtalar_angle_l	mtp_angle_l	lumbar_extension	lumbar_bending	lumbar_rotation	arm_flex_r	arm_add_r	arm_rot_r	elbow_flex_r	pro_sup_r	wrist_flex_r	wrist_dev_r	arm_flex_l	arm_add_l	arm_rot_l	elbow_flex_l	pro_sup_l	wrist_flex_l	wrist_dev_l
14.64	2.65506	1.48001	-0.967245	0.664875	1.28817	0.947904	-0.0450656	0.00876907	-0.254642	0.39628	-0.227346	0	0	-0.135178	-0.106862	0.0346301	0.163007	-0.328295	0	0	-0.572568	0.155774	0.0194828	0.388429	-0.361659	0.0652581	1.03488	1.40015	0	0	0.628103	-0.16622	0.0623028	0.621879	1.5708	0	0
14.65	2.63702	1.48269	-0.949843	0.664939	1.28945	0.947621	-0.0434195	0.00884731	-0.253544	0.395612	-0.226432	0	0	-0.1343	-0.106672	0.0349122	0.161224	-0.327787	0	0	-0.569844	0.155869	0.020981	0.378881	-0.358739	0.0546564	1.04172	1.41009	0	0	0.621972	-0.166402	0.0628298	0.62624	1.5708	0	0
14.66	2.6184	1.48561	-0.931919	0.664917	1.29071	0.947314	-0.0414627	0.00856986	-0.252441	0.395339	-0.225306	0	0	-0.133301	-0.106165	0.0349435	0.159273	-0.327419	0	0	-0.567091	0.155895	0.0224756	0.369319	-0.356093	0.0441423	1.04891	1.42026	0	0	0.615765	-0.166583	0.0633838	0.630863	1.5708	0	0
14.67	2.59866	1.48863	-0.912713	0.664871	1.29198	0.947013	-0.039494	0.00821484	-0.251484	0.395058	-0.223988	0	0	-0.132151	-0.105566	0.0350351	0.157366	-0.327184	0	0	-0.564295	0.155821	0.0238679	0.359723	-0.353268	0.0331802	1.05596	1.43082	0	0	0.609573	-0.166847	0.0641048	0.635692	1.5708	0	0
14.68	2.57618	1.4915	-0.890426	0.664818	1.29329	0.946727	-0.0377209	0.00812084	-0.250381	0.394316	-0.222863	0	0	-0.130954	-0.105232	0.0352093	0.155586	-0.326889	0	0	-0.5615	0.155907	0.0251386	0.349968	-0.350169	0.0217157	1.06283	1.44179	0	0	0.603408	-0.167067	0.0649955	0.640655	1.5708	0	0
14.69	2.54862	1.49445	-0.862815	0.664757	1.29461	0.946414	-0.035931	0.0083686	-0.249321	0.393158	-0.221738	0	0	-0.129255	-0.105105	0.0353982	0.154209	-0.326474	0	0	-0.558497	0.156207	0.026358	0.340123	-0.347214	0.0104574	1.0697	1.4529	0	0	0.597179	-0.167276	0.0658899	0.645882	1.5708	0	0
14.7	2.51941	1.49731	-0.833777	0.664594	1.29594	0.946071	-0.0339379	0.00826166	-0.248482	0.392297	-0.220822	0	0	-0.127513	-0.104745	0.0350966	0.153132	-0.325819	0	0	-0.555579	0.156493	0.0276209	0.330608	-0.344534	7.59709e-06	1.07649	1.4635	0	0	0.590873	-0.167492	0.0667246	0.651381	1.5708	0	0
14.71	2.48763	1.50006	-0.80233	0.664369	1.29729	0.945708	-0.0318008	0.00800598	-0.247726	0.391878	-0.21994	0	0	-0.125603	-0.104221	0.0343168	0.152502	-0.324951	0	0	-0.552663	0.156752	0.0287501	0.321434	-0.341856	-0.00966788	1.08309	1.47319	0	0	0.58446	-0.167936	0.0676565	0.657079	1.5708	0	0
14.72	2.44994	1.50279	-0.764849	0.664169	1.29868	0.945338	-0.0295172	0.00793947	-0.247206	0.39153	-0.218985	0	0	-0.123494	-0.103973	0.0334298	0.15194	-0.323962	0	0	-0.549525	0.157033	0.0296793	0.312345	-0.339222	-0.0189229	1.08956	1.48243	0	0	0.577845	-0.168647	0.0687881	0.663181	1.5708	0	0
14.73	2.40553	1.50538	-0.720596	0.664031	1.3001	0.944961	-0.0272362	0.00835785	-0.246293	0.390749	-0.218023	0	0	-0.121029	-0.104104	0.0325821	0.151885	-0.322779	0	0	-0.546292	0.157331	0.0306789	0.303349	-0.336488	-0.0281576	1.09606	1.4917	0	0	0.571098	-0.169459	0.0699812	0.669655	1.5708	0	0
14.74	2.36025	1.50773	-0.675808	0.663859	1.30155	0.944574	-0.0250906	0.00868167	-0.244779	0.390097	-0.217018	0	0	-0.118695	-0.104098	0.0316193	0.152273	-0.321279	0	0	-0.543263	0.157374	0.0319496	0.294631	-0.333989	-0.0371988	1.10234	1.50129	0	0	0.564314	-0.170175	0.0714064	0.676375	1.5708	0	0
14.75	2.29952	1.51076	-0.615892	0.663637	1.303	0.944066	-0.0212625	0.00850005	-0.242757	0.390741	-0.213862	0	0	-0.114349	-0.103648	0.0305153	0.154973	-0.315315	0	0	-0.540888	0.157066	0.0377769	0.278651	-0.329177	-0.0622374	1.11644	1.55874	0	0	0.559392	-0.1693	0.0782705	0.683942	1.5708	0	0
14.76	2.24925	1.51255	-0.566372	0.663382	1.30445	0.943656	-0.019379	0.00876987	-0.241173	0.390216	-0.212775	0	0	-0.111918	-0.10353	0.0295189	0.156337	-0.312732	0	0	-0.538206	0.157029	0.0391799	0.270393	-0.327508	-0.0698665	1.12232	1.56428	0	0	0.552637	-0.170194	0.0799667	0.691065	1.5708	0	0
14.77	2.1974	1.5139	-0.515483	0.663157	1.30595	0.943258	-0.017951	0.0093713	-0.239304	0.389419	-0.211674	0	0	-0.10978	-0.103637	0.0287026	0.157768	-0.30986	0	0	-0.535714	0.157003	0.0407463	0.26233	-0.325905	-0.0770355	1.12799	1.56838	0	0	0.545954	-0.171164	0.0816512	0.698045	1.5708	0	0
14.78	2.14777	1.51495	-0.466949	0.662934	1.30748	0.942876	-0.016831	0.00989695	-0.237423	0.388696	-0.210601	0	0	-0.10795	-0.103714	0.0283069	0.159573	-0.306762	0	0	-0.533069	0.157887	0.0418966	0.255222	-0.323989	-0.0832667	1.13357	1.57079	0	0	0.539567	-0.172325	0.0830442	0.703161	1.5708	0	0
14.79	2.09662	1.51588	-0.417113	0.662713	1.30904	0.94249	-0.0156044	0.0103915	-0.235476	0.388133	-0.209601	0	0	-0.10603	-0.103711	0.0280953	0.161824	-0.30338	0	0	-0.530429	0.158629	0.0432159	0.248456	-0.322302	-0.0889695	1.13899	1.5708	0	0	0.533246	-0.173388	0.0841513	0.708529	1.5708	0	0
14.8	2.042	1.51653	-0.364214	0.662477	1.31064	0.942088	-0.0142861	0.0109694	-0.233208	0.387563	-0.208662	0	0	-0.104041	-0.103601	0.0274881	0.164264	-0.299804	0	0	-0.527776	0.159358	0.0448215	0.242073	-0.320954	-0.0941151	1.14435	1.5708	0	0	0.526865	-0.174259	0.0846732	0.71427	1.5708	0	0
14.81	1.98077	1.51704	-0.305037	0.662237	1.31229	0.941656	-0.0128118	0.0116506	-0.230336	0.386666	-0.207653	0	0	-0.101948	-0.103542	0.0267847	0.166618	-0.296093	0	0	-0.524967	0.159961	0.046673	0.235676	-0.319719	-0.0992055	1.14986	1.5708	0	0	0.520082	-0.175075	0.0848707	0.720955	1.5708	0	0
14.82	1.91734	1.51754	-0.243686	0.662025	1.31396	0.94121	-0.0112239	0.0121703	-0.227729	0.385874	-0.206617	0	0	-0.0999268	-0.103373	0.026533	0.168579	-0.292999	0	0	-0.521877	0.160307	0.0483046	0.229656	-0.318494	-0.103621	1.1545	1.5708	0	0	0.513291	-0.175856	0.0850078	0.727531	1.5708	0	0
14.83	1.84778	1.51796	-0.176313	0.66185	1.31567	0.940745	-0.00888797	0.0123812	-0.225775	0.386118	-0.20551	0	0	-0.0977865	-0.103143	0.0266294	0.170202	-0.290216	0	0	-0.518419	0.160508	0.0497805	0.223792	-0.317136	-0.107717	1.15872	1.5708	0	0	0.506252	-0.176636	0.0849456	0.734275	1.5708	0	0
14.84	1.78346	1.51808	-0.114495	0.66161	1.31737	0.940303	-0.00672551	0.0124296	-0.223713	0.386705	-0.204711	0	0	-0.0963596	-0.102734	0.0267465	0.171132	-0.288153	0	0	-0.515061	0.160772	0.0510376	0.21869	-0.316151	-0.110601	1.16207	1.5708	0	0	0.499109	-0.17726	0.084424	0.740468	1.5708	0	0
14.85	1.73009	1.51778	-0.0635606	0.661332	1.31909	0.939906	-0.00541918	0.0127435	-0.221997	0.386918	-0.204187	0	0	-0.0957794	-0.10256	0.026881	0.171582	-0.286805	0	0	-0.511969	0.161177	0.0520906	0.21424	-0.315655	-0.1123	1.16409	1.5708	0	0	0.492259	-0.177676	0.0838415	0.745447	1.5708	0	0
14.86	1.6722	1.51717	-0.00791078	0.66102	1.32083	0.939486	-0.00383054	0.0132765	-0.220402	0.3872	-0.203623	0	0	-0.0951107	-0.102684	0.0270797	0.171554	-0.285446	0	0	-0.508909	0.161752	0.0533739	0.208926	-0.315082	-0.115291	1.16687	1.5708	0	0	0.484915	-0.178048	0.0834277	0.751244	1.5708	0	0
14.87	1.61045	1.51645	0.0516975	0.660685	1.32262	0.939056	-0.00187245	0.0135734	-0.218744	0.387591	-0.202909	0	0	-0.0942341	-0.102759	0.0272757	0.171565	-0.283425	0	0	-0.505909	0.162254	0.0546575	0.202906	-0.314493	-0.118776	1.17038	1.5708	0	0	0.477149	-0.178563	0.0832404	0.757535	1.5708	0	0
14.88	1.55155	1.5158	0.108713	0.660309	1.32442	0.938636	-0.00144443	0.0140189	-0.216646	0.384677	-0.202643	0	0	-0.0933168	-0.102355	0.0271967	0.171799	-0.281194	0	0	-0.503117	0.16266	0.0558126	0.196387	-0.313724	-0.122832	1.17453	1.5708	0	0	0.469362	-0.178807	0.0827336	0.763458	1.5708	0	0
14.89	1.4895	1.51515	0.168814	0.659903	1.32623	0.938195	0.00172825	0.0135022	-0.215253	0.388452	-0.201041	0	0	-0.0920084	-0.101517	0.0265338	0.172435	-0.279049	0	0	-0.500094	0.162823	0.0569863	0.189706	-0.3128	-0.127056	1.17878	1.5708	0	0	0.461446	-0.179061	0.082374	0.76949	1.5708	0	0
14.9	1.42129	1.5142	0.235319	0.659414	1.32807	0.937721	0.00433879	0.013166	-0.213753	0.389636	-0.199223	0	0	-0.0903776	-0.10073	0.0260711	0.172608	-0.276872	0	0	-0.496539	0.163129	0.0579554	0.18281	-0.311956	-0.131054	1.18302	1.5708	0	0	0.453229	-0.179428	0.0823428	0.776049	1.5708	0	0
14.91	1.32869	1.51247	0.326482	0.658893	1.32995	0.937118	0.00925936	0.0127804	-0.211873	0.391922	-0.195048	0	0	-0.0864679	-0.10009	0.0263204	0.174146	-0.271212	0	0	-0.492918	0.163516	0.0617481	0.170601	-0.311159	-0.141061	1.19386	1.5708	0	0	0.445165	-0.178898	0.0844193	0.785647	1.5708	0	0
14.92	1.26853	1.51078	0.385846	0.658306	1.33184	0.936667	0.0117039	0.0126818	-0.210577	0.392557	-0.194124	0	0	-0.0850935	-0.0997817	0.0270308	0.173468	-0.269801	0	0	-0.489443	0.164374	0.0621766	0.163517	-0.310087	-0.14537	1.19794	1.5708	0	0	0.436912	-0.178911	0.0836008	0.792898	1.5708	0	0
14.93	1.21448	1.50897	0.439226	0.657679	1.33375	0.936227	0.0140785	0.012461	-0.209309	0.393685	-0.192974	0	0	-0.0840945	-0.0995411	0.0277984	0.172519	-0.268483	0	0	-0.486163	0.165147	0.0624308	0.156527	-0.308888	-0.149818	1.20166	1.5708	0	0	0.428615	-0.178672	0.0822329	0.800064	1.5708	0	0
14.94	1.18789	1.50764	0.465446	0.656943	1.33564	0.935924	0.0142382	0.0123943	-0.208174	0.393626	-0.194976	0	0	-0.0850564	-0.0992542	0.0280295	0.170789	-0.270002	0	0	-0.48314	0.166172	0.0597379	0.154205	-0.307814	-0.149007	1.19945	1.5708	0	0	0.420146	-0.179145	0.0792681	0.804858	1.5708	0	0
14.95	1.14526	1.506	0.507823	0.656171	1.33751	0.935503	0.01632	0.0118646	-0.20655	0.395497	-0.193797	0	0	-0.0843045	-0.0985156	0.0282827	0.170196	-0.268756	0	0	-0.479677	0.168141	0.0589923	0.148099	-0.306329	-0.152968	1.20311	1.5708	0	0	0.412721	-0.178568	0.0778299	0.808607	1.5708	0	0
14.96	1.09921	1.50416	0.553721	0.655375	1.33939	0.935046	0.0190322	0.0111437	-0.204956	0.397826	-0.192396	0	0	-0.0832339	-0.0976538	0.0287007	0.16939	-0.267506	0	0	-0.475884	0.170022	0.0582935	0.141668	-0.305129	-0.156947	1.20711	1.5708	0	0	0.405314	-0.177842	0.0765391	0.812787	1.5708	0	0
14.97	1.05474	1.50213	0.598148	0.654584	1.3413	0.934569	0.0223176	0.0103233	-0.203724	0.400966	-0.191103	0	0	-0.0820641	-0.0968507	0.0290654	0.168614	-0.266181	0	0	-0.471968	0.171859	0.057781	0.134911	-0.303928	-0.161439	1.21107	1.5708	0	0	0.398042	-0.176961	0.0755887	0.817051	1.5708	0	0
